{
    "asset" : {
        "generator" : "Khronos glTF Blender I/O v1.2.75",
        "version" : "2.0"
    },
    "scene" : 0,
    "scenes" : [
        {
            "name" : "Scene",
            "nodes" : [
                0,
                1,
                2,
                3,
                4,
                5,
                6
            ]
        }
    ],
    "nodes" : [
        {
            "mesh" : 0,
            "name" : "stamm"
        },
        {
            "mesh" : 1,
            "name" : "Icosphere",
            "translation" : [
                -1.411759376525879,
                3.604522705078125,
                -1.3012433052062988
            ]
        },
        {
            "mesh" : 2,
            "name" : "Icosphere.001",
            "rotation" : [
                -0.4533848762512207,
                -0.11064353585243225,
                0.035696547478437424,
                0.8837001323699951
            ],
            "scale" : [
                1.2055847644805908,
                1.2055847644805908,
                1.2055847644805908
            ],
            "translation" : [
                0.4758991599082947,
                4.549957752227783,
                -0.26170605421066284
            ]
        },
        {
            "mesh" : 3,
            "name" : "Icosphere.002",
            "rotation" : [
                0.17183345556259155,
                -0.0032366146333515644,
                0.40917032957077026,
                0.8961263298988342
            ],
            "scale" : [
                0.9057723879814148,
                0.9057724475860596,
                0.9057724475860596
            ],
            "translation" : [
                -0.16225150227546692,
                3.981487989425659,
                0.9258938431739807
            ]
        },
        {
            "mesh" : 4,
            "name" : "Icosphere.003",
            "rotation" : [
                0.14069496095180511,
                -0.17104363441467285,
                0.1114238053560257,
                0.9687795042991638
            ],
            "scale" : [
                1.4588271379470825,
                1.458827018737793,
                1.4588271379470825
            ],
            "translation" : [
                -1.2151252031326294,
                3.1275036334991455,
                1.2607460021972656
            ]
        },
        {
            "mesh" : 5,
            "name" : "Icosphere.004",
            "rotation" : [
                -0.6295813918113708,
                -0.5094603896141052,
                -0.5785931944847107,
                0.09647438675165176
            ],
            "scale" : [
                1.4588271379470825,
                1.458827018737793,
                1.4588271379470825
            ],
            "translation" : [
                3.4068713188171387,
                4.3773884773254395,
                1.6146448850631714
            ]
        },
        {
            "mesh" : 6,
            "name" : "Icosphere.005",
            "rotation" : [
                -0.5047510862350464,
                -0.6408244967460632,
                -0.3726997673511505,
                0.442340612411499
            ],
            "scale" : [
                1.2933862209320068,
                1.2933859825134277,
                1.2933862209320068
            ],
            "translation" : [
                1.8976144790649414,
                4.999978542327881,
                0.370636522769928
            ]
        }
    ],
    "materials" : [
        {
            "doubleSided" : true,
            "emissiveFactor" : [
                0,
                0,
                0
            ],
            "name" : "Material.002",
            "pbrMetallicRoughness" : {
                "baseColorTexture" : {
                    "index" : 0,
                    "texCoord" : 0
                },
                "metallicFactor" : 0,
                "roughnessFactor" : 0.5
            }
        },
        {
            "doubleSided" : true,
            "emissiveFactor" : [
                0,
                0,
                0
            ],
            "name" : "Material.003",
            "pbrMetallicRoughness" : {
                "baseColorTexture" : {
                    "index" : 1,
                    "texCoord" : 0
                },
                "metallicFactor" : 0,
                "roughnessFactor" : 0.5
            }
        },
        {
            "doubleSided" : true,
            "emissiveFactor" : [
                0,
                0,
                0
            ],
            "name" : "Material.004",
            "pbrMetallicRoughness" : {
                "baseColorTexture" : {
                    "index" : 2,
                    "texCoord" : 0
                },
                "metallicFactor" : 0,
                "roughnessFactor" : 0.5
            }
        },
        {
            "doubleSided" : true,
            "emissiveFactor" : [
                0,
                0,
                0
            ],
            "name" : "Material.005",
            "pbrMetallicRoughness" : {
                "baseColorTexture" : {
                    "index" : 3,
                    "texCoord" : 0
                },
                "metallicFactor" : 0,
                "roughnessFactor" : 0.5
            }
        },
        {
            "doubleSided" : true,
            "emissiveFactor" : [
                0,
                0,
                0
            ],
            "name" : "Material.006",
            "pbrMetallicRoughness" : {
                "baseColorTexture" : {
                    "index" : 4,
                    "texCoord" : 0
                },
                "metallicFactor" : 0,
                "roughnessFactor" : 0.5
            }
        },
        {
            "doubleSided" : true,
            "emissiveFactor" : [
                0,
                0,
                0
            ],
            "name" : "Material.001",
            "pbrMetallicRoughness" : {
                "baseColorTexture" : {
                    "index" : 5,
                    "texCoord" : 0
                },
                "metallicFactor" : 0,
                "roughnessFactor" : 0.5
            }
        },
        {
            "doubleSided" : true,
            "emissiveFactor" : [
                0,
                0,
                0
            ],
            "name" : "Material.007",
            "pbrMetallicRoughness" : {
                "baseColorTexture" : {
                    "index" : 6,
                    "texCoord" : 0
                },
                "metallicFactor" : 0,
                "roughnessFactor" : 0.5
            }
        }
    ],
    "meshes" : [
        {
            "name" : "Cube.001",
            "primitives" : [
                {
                    "attributes" : {
                        "POSITION" : 0,
                        "NORMAL" : 1,
                        "TEXCOORD_0" : 2
                    },
                    "indices" : 3,
                    "material" : 0
                }
            ]
        },
        {
            "name" : "Icosphere",
            "primitives" : [
                {
                    "attributes" : {
                        "POSITION" : 4,
                        "NORMAL" : 5,
                        "TEXCOORD_0" : 6
                    },
                    "indices" : 7,
                    "material" : 1
                }
            ]
        },
        {
            "name" : "Icosphere.001",
            "primitives" : [
                {
                    "attributes" : {
                        "POSITION" : 8,
                        "NORMAL" : 9,
                        "TEXCOORD_0" : 10
                    },
                    "indices" : 7,
                    "material" : 2
                }
            ]
        },
        {
            "name" : "Icosphere.002",
            "primitives" : [
                {
                    "attributes" : {
                        "POSITION" : 11,
                        "NORMAL" : 12,
                        "TEXCOORD_0" : 13
                    },
                    "indices" : 7,
                    "material" : 3
                }
            ]
        },
        {
            "name" : "Icosphere.003",
            "primitives" : [
                {
                    "attributes" : {
                        "POSITION" : 14,
                        "NORMAL" : 15,
                        "TEXCOORD_0" : 16
                    },
                    "indices" : 7,
                    "material" : 4
                }
            ]
        },
        {
            "name" : "Icosphere.004",
            "primitives" : [
                {
                    "attributes" : {
                        "POSITION" : 17,
                        "NORMAL" : 18,
                        "TEXCOORD_0" : 19
                    },
                    "indices" : 7,
                    "material" : 5
                }
            ]
        },
        {
            "name" : "Icosphere.005",
            "primitives" : [
                {
                    "attributes" : {
                        "POSITION" : 20,
                        "NORMAL" : 21,
                        "TEXCOORD_0" : 22
                    },
                    "indices" : 7,
                    "material" : 6
                }
            ]
        }
    ],
    "textures" : [
        {
            "source" : 0
        },
        {
            "source" : 0
        },
        {
            "source" : 0
        },
        {
            "source" : 0
        },
        {
            "source" : 0
        },
        {
            "source" : 0
        },
        {
            "source" : 0
        }
    ],
    "images" : [
        {
            "bufferView" : 4,
            "mimeType" : "image/png",
            "name" : "palette"
        }
    ],
    "accessors" : [
        {
            "bufferView" : 0,
            "componentType" : 5126,
            "count" : 1461,
            "max" : [
                3.5488409996032715,
                4.923859596252441,
                1.820659875869751
            ],
            "min" : [
                -1.470483422279358,
                -0.01406140998005867,
                -1.379671335220337
            ],
            "type" : "VEC3"
        },
        {
            "bufferView" : 1,
            "componentType" : 5126,
            "count" : 1461,
            "type" : "VEC3"
        },
        {
            "bufferView" : 2,
            "componentType" : 5126,
            "count" : 1461,
            "type" : "VEC2"
        },
        {
            "bufferView" : 3,
            "componentType" : 5123,
            "count" : 2163,
            "type" : "SCALAR"
        },
        {
            "bufferView" : 5,
            "componentType" : 5126,
            "count" : 60,
            "max" : [
                0.8944249749183655,
                1,
                0.8506399989128113
            ],
            "min" : [
                -0.8944249749183655,
                -1,
                -0.8506399989128113
            ],
            "type" : "VEC3"
        },
        {
            "bufferView" : 6,
            "componentType" : 5126,
            "count" : 60,
            "type" : "VEC3"
        },
        {
            "bufferView" : 7,
            "componentType" : 5126,
            "count" : 60,
            "type" : "VEC2"
        },
        {
            "bufferView" : 8,
            "componentType" : 5123,
            "count" : 60,
            "type" : "SCALAR"
        },
        {
            "bufferView" : 9,
            "componentType" : 5126,
            "count" : 60,
            "max" : [
                0.8944249749183655,
                1,
                0.8506399989128113
            ],
            "min" : [
                -0.8944249749183655,
                -1,
                -0.8506399989128113
            ],
            "type" : "VEC3"
        },
        {
            "bufferView" : 10,
            "componentType" : 5126,
            "count" : 60,
            "type" : "VEC3"
        },
        {
            "bufferView" : 11,
            "componentType" : 5126,
            "count" : 60,
            "type" : "VEC2"
        },
        {
            "bufferView" : 12,
            "componentType" : 5126,
            "count" : 60,
            "max" : [
                0.8944249749183655,
                1,
                0.8506399989128113
            ],
            "min" : [
                -0.8944249749183655,
                -1,
                -0.8506399989128113
            ],
            "type" : "VEC3"
        },
        {
            "bufferView" : 13,
            "componentType" : 5126,
            "count" : 60,
            "type" : "VEC3"
        },
        {
            "bufferView" : 14,
            "componentType" : 5126,
            "count" : 60,
            "type" : "VEC2"
        },
        {
            "bufferView" : 15,
            "componentType" : 5126,
            "count" : 60,
            "max" : [
                0.8944249749183655,
                1,
                0.8506399989128113
            ],
            "min" : [
                -0.8944249749183655,
                -1,
                -0.8506399989128113
            ],
            "type" : "VEC3"
        },
        {
            "bufferView" : 16,
            "componentType" : 5126,
            "count" : 60,
            "type" : "VEC3"
        },
        {
            "bufferView" : 17,
            "componentType" : 5126,
            "count" : 60,
            "type" : "VEC2"
        },
        {
            "bufferView" : 18,
            "componentType" : 5126,
            "count" : 60,
            "max" : [
                0.8944249749183655,
                1,
                0.8506399989128113
            ],
            "min" : [
                -0.8944249749183655,
                -1,
                -0.8506399989128113
            ],
            "type" : "VEC3"
        },
        {
            "bufferView" : 19,
            "componentType" : 5126,
            "count" : 60,
            "type" : "VEC3"
        },
        {
            "bufferView" : 20,
            "componentType" : 5126,
            "count" : 60,
            "type" : "VEC2"
        },
        {
            "bufferView" : 21,
            "componentType" : 5126,
            "count" : 60,
            "max" : [
                0.8944249749183655,
                1,
                0.8506399989128113
            ],
            "min" : [
                -0.8944249749183655,
                -1,
                -0.8506399989128113
            ],
            "type" : "VEC3"
        },
        {
            "bufferView" : 22,
            "componentType" : 5126,
            "count" : 60,
            "type" : "VEC3"
        },
        {
            "bufferView" : 23,
            "componentType" : 5126,
            "count" : 60,
            "type" : "VEC2"
        }
    ],
    "bufferViews" : [
        {
            "buffer" : 0,
            "byteLength" : 17532,
            "byteOffset" : 0
        },
        {
            "buffer" : 0,
            "byteLength" : 17532,
            "byteOffset" : 17532
        },
        {
            "buffer" : 0,
            "byteLength" : 11688,
            "byteOffset" : 35064
        },
        {
            "buffer" : 0,
            "byteLength" : 4326,
            "byteOffset" : 46752
        },
        {
            "buffer" : 0,
            "byteLength" : 268,
            "byteOffset" : 51080
        },
        {
            "buffer" : 0,
            "byteLength" : 720,
            "byteOffset" : 51348
        },
        {
            "buffer" : 0,
            "byteLength" : 720,
            "byteOffset" : 52068
        },
        {
            "buffer" : 0,
            "byteLength" : 480,
            "byteOffset" : 52788
        },
        {
            "buffer" : 0,
            "byteLength" : 120,
            "byteOffset" : 53268
        },
        {
            "buffer" : 0,
            "byteLength" : 720,
            "byteOffset" : 53388
        },
        {
            "buffer" : 0,
            "byteLength" : 720,
            "byteOffset" : 54108
        },
        {
            "buffer" : 0,
            "byteLength" : 480,
            "byteOffset" : 54828
        },
        {
            "buffer" : 0,
            "byteLength" : 720,
            "byteOffset" : 55308
        },
        {
            "buffer" : 0,
            "byteLength" : 720,
            "byteOffset" : 56028
        },
        {
            "buffer" : 0,
            "byteLength" : 480,
            "byteOffset" : 56748
        },
        {
            "buffer" : 0,
            "byteLength" : 720,
            "byteOffset" : 57228
        },
        {
            "buffer" : 0,
            "byteLength" : 720,
            "byteOffset" : 57948
        },
        {
            "buffer" : 0,
            "byteLength" : 480,
            "byteOffset" : 58668
        },
        {
            "buffer" : 0,
            "byteLength" : 720,
            "byteOffset" : 59148
        },
        {
            "buffer" : 0,
            "byteLength" : 720,
            "byteOffset" : 59868
        },
        {
            "buffer" : 0,
            "byteLength" : 480,
            "byteOffset" : 60588
        },
        {
            "buffer" : 0,
            "byteLength" : 720,
            "byteOffset" : 61068
        },
        {
            "buffer" : 0,
            "byteLength" : 720,
            "byteOffset" : 61788
        },
        {
            "buffer" : 0,
            "byteLength" : 480,
            "byteOffset" : 62508
        }
    ],
    "buffers" : [
        {
            "byteLength" : 62988,
            "uri" : "data:application/octet-stream;base64,"
        }
    ]
}
